<svg width="321" height="321" viewBox="0 0 321 321" fill="none" xmlns="http://www.w3.org/2000/svg">
<path d="M162.901 306.626C246.327 306.626 313.958 267.578 313.958 219.41C313.958 171.242 246.327 132.194 162.901 132.194C79.4754 132.194 11.8452 171.242 11.8452 219.41C11.8452 267.578 79.4754 306.626 162.901 306.626Z" fill="#F5F5F5"/>
<path d="M262.501 262.18C286.168 262.18 305.354 251.103 305.354 237.438C305.354 223.773 286.168 212.695 262.501 212.695C238.834 212.695 219.647 223.773 219.647 237.438C219.647 251.103 238.834 262.18 262.501 262.18Z" fill="#E0E0E0"/>
<path d="M154.048 250.784L105.706 222.864L160.963 190.963L209.312 218.877L154.048 250.784Z" fill="#E0E0E0"/>
<path d="M22.4121 242.15L84.7631 278.147L137.06 247.96L74.7094 211.963L22.4121 242.15Z" fill="#E0E0E0"/>
<path d="M114.61 72.9505V69.4066C114.597 69.0728 114.366 68.7261 113.903 68.4629L92.5119 56.1879C91.6067 55.6678 90.1301 55.6678 89.2249 56.1879L27.7277 91.4786C27.2654 91.7418 27.0279 92.0885 27.0215 92.4224V95.9662C27.0343 96.3 27.2654 96.6467 27.7277 96.9099L49.1191 109.185C50.0243 109.705 51.5009 109.705 52.4062 109.185L113.903 73.8942C114.359 73.631 114.597 73.2843 114.61 72.9505Z" fill="#F0F0F0"/>
<path d="M27.7214 93.3661L49.1128 105.641C50.0181 106.161 51.4947 106.161 52.3999 105.641L113.897 70.3504C114.802 69.8304 114.802 68.9829 113.897 68.4629L92.5056 56.1879C91.6004 55.6678 90.1238 55.6678 89.2186 56.1879L27.7214 91.4786C26.8162 91.9986 26.8162 92.8461 27.7214 93.3661Z" fill="#FAFAFA"/>
<path d="M50.7564 106.039V109.577C50.1657 109.577 49.5687 109.442 49.1129 109.185L27.7214 96.91C27.2592 96.6467 27.0216 96.3001 27.0152 95.9662H27.0088V92.4288H27.0152C27.0216 92.294 27.073 92.1592 27.15 92.0308C26.8996 92.4866 27.0858 93.013 27.7214 93.3725L49.1129 105.648C49.5623 105.911 50.1657 106.039 50.7564 106.039Z" fill="#E0E0E0"/>
<path d="M62.2485 76.096L80.3722 86.4258L110.315 69.2459L92.1914 58.9097L62.2485 76.096Z" fill="#E0E0E0"/>
<path d="M80.5775 85.6427L63.0958 75.6082C63.5516 74.3114 63.5195 72.8027 62.9995 71.0757L80.372 81.001C80.372 81.001 80.7059 82.0988 80.5775 85.6427Z" fill="white"/>
<path d="M79.4798 79.5885C80.4107 80.1214 81.1619 81.4182 81.1619 82.4775V85.8545C81.1619 86.9202 80.4107 87.3503 79.4798 86.8175L62.2485 76.9307V76.0961L79.2487 85.7903C79.8072 86.1113 80.2566 85.848 80.2566 85.2125L80.2438 82.0795C80.2438 81.4375 79.7944 80.6607 79.2359 80.3461L62.255 70.6455V69.6953L79.4798 79.5885Z" fill="#EBEBEB"/>
<path d="M62.2485 69.702L92.1914 52.5156L109.423 62.4024C110.347 62.9353 111.105 64.2321 111.105 65.2914V68.6683C111.105 69.2012 110.919 69.5736 110.61 69.7469L80.6675 86.9268C80.9757 86.7535 81.1619 86.3747 81.1619 85.8483V82.4649C81.1619 81.3992 80.4107 80.1024 79.4798 79.5759L62.2485 69.702Z" fill="#FAFAFA"/>
<path d="M80.6675 80.8341C80.9692 81.3606 81.1618 81.9448 81.1618 82.4777V85.861C81.1618 86.3939 80.9756 86.7662 80.6675 86.9396L110.61 69.7596C110.919 69.5863 111.105 69.2075 111.105 68.6811V65.3042C111.105 64.7713 110.919 64.1807 110.61 63.6606L80.6675 80.8341Z" fill="#F0F0F0"/>
<path d="M43.8228 50.3843L43.6494 52.6698L63.8853 63.526L64.3411 62.1907L43.8228 50.3843Z" fill="#EBEBEB"/>
<path d="M64.0718 62.7232L44.4715 51.4048L41.0625 53.3757L61.048 65.0665L64.0718 62.7232Z" fill="white"/>
<path d="M57.369 63.8535L55.4302 86.5675C55.4302 87.0297 55.7576 87.5947 56.1556 87.8258L67.5255 94.4063C67.6924 94.5026 67.8978 94.5604 68.1161 94.5732L61.0477 65.8052C60.8294 65.7859 60.624 65.7346 60.457 65.6383L59.6353 65.1632L57.369 63.8535Z" fill="#E0E0E0"/>
<path d="M61.9146 65.6445L63.9433 63.9111L65.4327 62.6335C65.5868 62.3895 65.7601 62.2098 65.6638 62.0107L72.636 90.5733L72.6488 90.5926C72.7451 90.7916 72.7708 91.241 72.5011 91.4015L68.983 94.4125C68.7454 94.5473 68.4244 94.6051 68.1163 94.5794L61.0479 65.805C61.356 65.8306 61.677 65.7793 61.9146 65.6445Z" fill="#F0F0F0"/>
<path d="M65.4325 61.7926C65.8369 62.0237 65.7342 62.2805 65.4325 62.6336L61.9143 65.6446C61.5099 65.8757 60.8614 65.8757 60.4634 65.6446L57.369 63.8598C56.9645 63.6287 56.8939 63.2948 57.2085 63.1151C57.523 62.9353 58.1008 62.9738 58.5053 63.205L60.9449 64.6109C61.0797 64.688 61.298 64.688 61.4264 64.6109L63.9944 62.3768C64.1292 62.2997 64.1292 62.1713 63.9944 62.0943L43.8228 50.3842L44.7922 49.8257L65.4325 61.7926Z" fill="#FAFAFA"/>
<path d="M37.9805 51.4819L57.2597 62.6142V99.2981L37.9805 88.1594V51.4819Z" fill="#EBEBEB"/>
<path d="M56.6372 63.2242L37.9807 52.5156C37.0177 53.6263 35.5925 54.4031 33.7114 54.8461L52.2139 65.5097C52.2139 65.5161 53.408 65.2336 56.6372 63.2242Z" fill="white"/>
<path d="M50.4225 65.4515C51.4112 66.0229 53.0162 66.0229 54.0113 65.4515L57.1507 63.6475C58.1394 63.0761 58.1394 62.1581 57.1507 61.5867L38.7574 51.0322L37.9806 51.4752L56.0657 61.9205C56.6628 62.2608 56.6628 62.8129 56.0657 63.1532L53.1446 64.8095C52.5475 65.1498 51.5845 65.1498 50.9939 64.8095L32.9152 54.3899L32.0356 54.8971L50.4225 65.4515Z" fill="#FAFAFA"/>
<path d="M32.0356 54.8975V91.5749L50.4225 102.129C51.4112 102.694 53.0162 102.694 54.0113 102.129L57.1571 100.325C57.6514 100.043 57.8954 99.6705 57.8954 99.2982V62.6143C57.8954 62.9867 57.645 63.359 57.1571 63.6415L54.0113 65.4455C53.0226 66.0105 51.4176 66.0105 50.4225 65.4455L32.0356 54.8975Z" fill="#EBEBEB"/>
<path d="M52.2139 65.8755C52.8623 65.8755 53.5107 65.7343 54.005 65.4518L57.1508 63.6478C57.6452 63.3653 57.8891 62.993 57.8891 62.6206V99.2981C57.8891 99.6704 57.6388 100.043 57.1508 100.325L54.005 102.129C53.5107 102.412 52.8623 102.553 52.2139 102.553V65.8755Z" fill="#F0F0F0"/>
<path d="M207.373 198.994C206.936 191.303 203.527 175.895 208.015 161.687C210.294 154.465 215.539 146.812 223.339 144.655C226.1 143.891 229.515 143.994 230.87 147.14C231.101 147.666 231.223 148.238 231.268 148.815C231.435 151.204 230.35 153.322 229.143 155.274C226.376 159.742 222.871 163.703 220.065 168.146C218.582 170.502 217.311 172.974 216.207 175.523" stroke="#27DEBF" stroke-width="0.566758" stroke-miterlimit="10"/>
<path d="M207.186 204.021C207.186 204.945 207.43 206.101 207.224 206.981C207.16 207.244 207.109 207.533 207.224 207.783C207.34 208.033 207.7 208.175 207.892 207.989C208.033 207.854 208.181 206.859 208.277 206.608C208.47 206.069 208.765 205.549 209.022 205.035C209.536 203.995 210.075 202.975 210.653 201.973C211.84 199.906 213.169 197.916 214.62 196.022C217.477 192.292 220.822 188.928 224.552 186.064C228.597 182.957 233.078 180.434 237.033 177.217C238.201 176.267 239.363 175.195 239.864 173.783C240.608 171.664 239.62 169.192 237.861 167.799C236.102 166.406 233.733 165.963 231.499 166.13C229.354 166.291 226.472 167.209 224.103 168.499C219.275 171.131 215.956 175.202 213.304 179.818C209.76 185.974 207.745 192.985 207.199 200.053C207.186 201.369 207.186 202.698 207.186 204.021Z" stroke="#27DEBF" stroke-width="0.566758" stroke-miterlimit="10"/>
<path d="M234.748 169.97C225.612 172.589 212.072 183.079 207.187 202.551" stroke="#27DEBF" stroke-width="0.566758" stroke-miterlimit="10" stroke-linecap="round" stroke-linejoin="round"/>
<path d="M225.349 148.809C220.418 152.732 208.637 165.167 207.154 185.268" stroke="#27DEBF" stroke-width="0.566758" stroke-miterlimit="10" stroke-linecap="round" stroke-linejoin="round"/>
<path d="M246.961 42.8829L192.667 11.5763C191.515 10.9123 190.47 10.8439 189.718 11.2833C189.015 11.6837 186.515 13.1387 185.812 13.5391C185.051 13.9687 184.582 14.9062 184.582 16.244V164.828C184.582 167.494 186.447 170.726 188.752 172.054L243.045 203.361C244.197 204.025 245.242 204.093 245.994 203.654C246.697 203.254 249.217 201.799 249.92 201.389C250.672 200.949 251.131 200.021 251.131 198.693V50.109C251.14 47.4529 249.275 44.2109 246.961 42.8829Z" fill="#AA864D"/>
<path d="M196.319 167.406L192.403 169.662V182.024C192.403 182.688 192.872 183.499 193.448 183.831L195.274 184.886C195.85 185.218 196.788 185.218 197.364 184.886L199.19 183.831C199.766 183.499 200.411 182.718 200.625 182.093L204.151 171.927L196.319 167.406Z" fill="#AA864D"/>
<path d="M192.403 182.024C192.403 182.688 192.872 183.499 193.448 183.831L195.274 184.885C195.85 185.217 196.495 184.983 196.71 184.348L200.235 174.183L192.403 169.662V182.024Z" fill="#CDA666"/>
<path d="M235.467 189.953L231.551 192.209V204.571C231.551 205.235 232.02 206.046 232.596 206.378L234.422 207.432C234.998 207.764 235.936 207.764 236.512 207.432L238.338 206.378C238.914 206.046 239.559 205.265 239.773 204.64L243.299 194.474L235.467 189.953Z" fill="#AA864D"/>
<path d="M231.561 204.571C231.561 205.235 232.029 206.045 232.605 206.378L234.431 207.432C235.008 207.764 235.652 207.53 235.867 206.895L239.392 196.73L231.561 192.208V204.571Z" fill="#CDA666"/>
<path d="M189.026 13.9195L243.319 45.2262C245.624 46.5542 247.489 49.7962 247.489 52.4523V201.037C247.489 202.365 247.02 203.302 246.268 203.742C245.516 204.181 244.471 204.113 243.319 203.449L189.026 172.142C186.721 170.814 184.856 167.572 184.856 164.916V16.3315C184.856 14.9937 185.325 14.0563 186.086 13.6266C186.838 13.1872 187.883 13.2555 189.026 13.9195Z" fill="#CDA666"/>
<path d="M110.183 217.08L168.909 250.984L251.131 203.517L247.215 201.261L188.488 167.347L110.183 212.559V217.08Z" fill="#97743B"/>
<path d="M168.909 250.985V246.463L251.131 198.996V203.517L168.909 250.985Z" fill="#AA864D"/>
<path d="M168.987 244.208C179.973 227.588 179.358 198.215 178.42 193.254C178.42 193.254 183.049 224.307 188.761 233.183" stroke="#FAFAFA" stroke-width="0.722904" stroke-miterlimit="10"/>
<path d="M180.364 204.533C182.248 213.585 203.673 219.981 203.673 219.981" stroke="#FAFAFA" stroke-width="0.722904" stroke-miterlimit="10"/>
<path d="M178.254 213.546C178.86 212.072 181.838 211.876 182.405 214.259C182.405 214.259 182.746 209.865 185.227 211.105" stroke="#FAFAFA" stroke-width="0.722904" stroke-miterlimit="10"/>
<path d="M177.405 219.981C178.509 217.618 182.571 216.319 184.358 221.924C184.358 221.924 184.631 211.896 191.262 214.913" stroke="#FAFAFA" stroke-width="0.722904" stroke-miterlimit="10"/>
<path d="M175.52 228.857C177.844 224.385 184.221 222.598 185.861 226.719C185.9 221.622 191.73 215.206 198.849 218.292" stroke="#FAFAFA" stroke-width="0.722904" stroke-miterlimit="10"/>
<path d="M171.584 239.628C174.309 234.668 181.008 225.723 186.837 229.326" stroke="#FAFAFA" stroke-width="0.722904" stroke-miterlimit="10"/>
<path d="M243.299 153.784V158.305L168.909 201.261L110.183 167.348V162.826L184.572 119.88L243.299 153.784Z" fill="#AA864D"/>
<path d="M243.299 153.784L168.909 196.74L110.183 162.826L184.572 119.88L243.299 153.784Z" fill="#97743B"/>
<path d="M243.299 104.06V108.572L168.909 151.528L110.183 117.614V113.093L184.572 70.1465L243.299 104.06Z" fill="#AA864D"/>
<path d="M243.299 104.06L168.909 147.007L110.183 113.093L184.572 70.1465L243.299 104.06Z" fill="#97743B"/>
<path d="M168.655 88.0362L114.361 56.7296C113.209 56.0656 112.164 55.9972 111.412 56.4367C110.709 56.837 108.209 58.292 107.506 58.6924C106.745 59.122 106.276 60.0595 106.276 61.3973V209.982C106.276 212.647 108.141 215.88 110.446 217.208L164.739 248.514C165.891 249.178 166.936 249.247 167.688 248.807C168.391 248.407 170.91 246.952 171.614 246.542C172.365 246.102 172.824 245.175 172.824 243.847V95.2721C172.834 92.6063 170.969 89.374 168.655 88.0362Z" fill="#AA864D"/>
<path opacity="0.2" d="M168.91 110.837L172.835 108.582V95.0083L168.9 97.2738L168.91 110.837Z" fill="#020202"/>
<path opacity="0.2" d="M247.224 65.6352L251.15 63.3795V49.8062L247.214 52.0716L247.224 65.6352Z" fill="#020202"/>
<path d="M118.014 212.56L114.099 214.815V227.178C114.099 227.842 114.567 228.652 115.143 228.984L116.97 230.039C117.546 230.371 118.483 230.371 119.059 230.039L120.885 228.984C121.461 228.652 122.106 227.871 122.321 227.246L125.846 217.081L118.014 212.56Z" fill="#AA864D"/>
<path d="M114.099 227.177C114.099 227.841 114.567 228.652 115.143 228.984L116.97 230.039C117.546 230.371 118.19 230.136 118.405 229.502L121.93 219.336L114.099 214.815V227.177Z" fill="#CDA666"/>
<path d="M157.162 235.117L153.246 237.372V249.735C153.246 250.399 153.715 251.209 154.291 251.541L156.117 252.596C156.693 252.928 157.631 252.928 158.207 252.596L160.033 251.541C160.609 251.209 161.253 250.428 161.468 249.803L164.993 239.638L157.162 235.117Z" fill="#AA864D"/>
<path d="M153.256 249.735C153.256 250.399 153.725 251.21 154.301 251.542L156.127 252.596C156.703 252.928 157.347 252.694 157.562 252.059L161.087 241.894L153.256 237.373V249.735Z" fill="#CDA666"/>
<path d="M110.436 59.005L164.73 90.3116C167.034 91.6397 168.899 94.8816 168.899 97.5377V246.122C168.899 247.45 168.899 250.985 168.899 250.985C168.899 250.985 165.882 249.198 164.72 248.534L110.426 217.227C108.122 215.899 106.257 212.657 106.257 210.001V61.417C106.257 60.0792 106.726 59.1417 107.487 58.712C108.259 58.2726 109.294 58.341 110.436 59.005Z" fill="#CDA666"/>
<path opacity="0.2" d="M164.739 90.3014L110.446 58.9947C109.303 58.3307 108.258 58.2624 107.506 58.692C106.745 59.1217 106.276 60.0591 106.276 61.3969V74.6578L168.918 110.827V97.5177C168.909 94.8714 167.044 91.6392 164.739 90.3014Z" fill="#020202"/>
<path d="M196.32 83.7098L239.384 58.8481V104.06" stroke="#FAFAFA" stroke-width="0.722904" stroke-miterlimit="10" stroke-linecap="round" stroke-linejoin="round"/>
<path d="M231.551 92.7523L239.383 58.8481L223.72 85.9753" stroke="#FAFAFA" stroke-width="0.722904" stroke-miterlimit="10" stroke-linecap="round" stroke-linejoin="round"/>
<path d="M239.384 58.8481L215.899 81.4541" stroke="#FAFAFA" stroke-width="0.722904" stroke-miterlimit="10" stroke-linecap="round" stroke-linejoin="round"/>
<path d="M239.385 96.8445C239.394 90.507 232.158 90.1554 232.158 90.1554C232.598 88.2317 232.119 85.1558 229.786 83.1539C227.452 81.1619 225.87 82.2556 225.401 83.066C225.401 83.066 225.889 77.2363 220.851 76.6797C220.851 76.6797 224.19 70.518 220.851 69.5415" stroke="#FAFAFA" stroke-width="0.722904" stroke-miterlimit="10" stroke-linecap="round" stroke-linejoin="round"/>
<path d="M239.384 87.0987C239.13 83.8567 236.649 79.7262 234.101 81.7182C234.101 81.7182 234.774 74.6386 229.726 75.5663C229.726 75.5663 232.089 69.0042 227.128 70.6252C227.128 70.6252 230.702 66.104 227.929 65.4497" stroke="#FAFAFA" stroke-width="0.722904" stroke-miterlimit="10" stroke-linecap="round" stroke-linejoin="round"/>
<path d="M260.417 43.0289C260.427 42.1598 259.85 41.281 258.698 40.617L200.489 7.0058C198.184 5.67776 194.444 5.67776 192.14 7.0058L102.605 58.7017C101.452 59.3658 100.876 60.2446 100.886 61.1137C100.896 61.9242 100.896 64.8244 100.886 65.6349C100.876 66.504 101.452 67.3828 102.605 68.0469L160.814 101.658C163.118 102.986 166.858 102.986 169.163 101.658L258.698 49.9621C259.85 49.298 260.427 48.4192 260.417 47.5501C260.417 46.7396 260.417 43.8394 260.417 43.0289Z" fill="#CDA666"/>
<path d="M160.823 97.1271L102.614 63.5159C100.31 62.1879 100.31 60.0298 102.614 58.692L192.15 6.99603C194.454 5.66799 198.194 5.66799 200.499 6.99603L258.708 40.6072C261.012 41.9352 261.012 44.0933 258.708 45.4311L169.172 97.1271C166.868 98.4649 163.128 98.4649 160.823 97.1271Z" fill="#97743B"/>
<path opacity="0.1" d="M247.214 56.583L219.813 90.4969L172.834 117.624L172.824 99.5393L247.214 56.583Z" fill="#020202"/>
<path opacity="0.1" d="M243.298 108.572L219.813 140.221L172.834 167.358V149.263L243.298 108.572Z" fill="#020202"/>
<path opacity="0.1" d="M243.298 158.305L219.813 189.954L172.834 217.091V198.996L243.298 158.305Z" fill="#020202"/>
<path d="M147.032 256L93.3595 286.991L32.9194 252.019L86.5922 221.028L147.032 256Z" fill="#F2CC8F"/>
<path opacity="0.5" d="M147.032 256L93.3595 286.991L32.9194 252.019L86.5922 221.028L147.032 256Z" fill="black"/>
<path d="M86.5922 179.02V221.028L32.9194 252.019V210.011L86.5922 179.02Z" fill="#F2CC8F"/>
<path opacity="0.23" d="M86.5922 179.02V221.028L32.9194 252.019V210.011L86.5922 179.02Z" fill="black"/>
<path d="M93.3595 244.983V286.991L32.9194 252.019V210.011L93.3595 244.983Z" fill="#F2CC8F"/>
<path opacity="0.38" d="M93.3595 244.983V286.991L32.9194 252.019V210.011L93.3595 244.983Z" fill="black"/>
<path d="M147.032 213.991V256L86.5923 221.028V179.02L147.032 213.991Z" fill="#F2CC8F"/>
<path opacity="0.4" d="M147.032 213.991V256L86.5923 221.028V179.02L147.032 213.991Z" fill="black"/>
<path d="M147.032 255.999V213.991L93.3594 244.983V286.991L147.032 255.999Z" fill="#F2CC8F"/>
<path opacity="0.23" d="M147.032 255.999V213.991L93.3594 244.983V286.991L147.032 255.999Z" fill="black"/>
<path d="M86.5923 179.019L86.6651 155.763L146.96 190.779L147.032 213.991L86.5923 179.019Z" fill="#F2CC8F"/>
<path opacity="0.2" d="M86.5923 179.019L86.6651 155.763L146.96 190.779L147.032 213.991L86.5923 179.019Z" fill="black"/>
<path d="M93.3594 244.983L98.3948 224.637L151.58 193.93L147.032 213.991L93.3594 244.983Z" fill="#F2CC8F"/>
<path opacity="0.3" d="M93.3594 244.983L98.3948 224.637L151.58 193.93L147.032 213.991L93.3594 244.983Z" fill="black"/>
<path d="M32.9191 210.011L26.5156 188.908L80.1884 157.924L86.5919 179.019L32.9191 210.011Z" fill="#F2CC8F"/>
<path opacity="0.1" d="M32.9191 210.011L26.5156 188.908L80.1884 157.924L86.5919 179.019L32.9191 210.011Z" fill="black"/>
<path d="M32.9194 210.011L20.2871 192.569L80.7345 227.541L93.3595 244.983L32.9194 210.011Z" fill="#F2CC8F"/>
<path opacity="0.45" d="M32.9194 210.011L20.2871 192.569L80.7345 227.541L93.3595 244.983L32.9194 210.011Z" fill="black"/>
<g opacity="0.7">
<path d="M109.165 274.498C108.983 274.498 108.837 274.352 108.837 274.17V266.777C108.837 266.595 108.983 266.45 109.165 266.45C109.347 266.45 109.492 266.595 109.492 266.777V274.17C109.492 274.345 109.347 274.498 109.165 274.498Z" fill="white"/>
<path d="M108.197 269.338C108.153 269.338 108.109 269.331 108.066 269.309C107.898 269.236 107.818 269.04 107.891 268.872L109.063 266.158L110.373 267.672C110.489 267.81 110.474 268.021 110.336 268.137C110.198 268.254 109.987 268.239 109.87 268.101L109.245 267.381L108.488 269.127C108.444 269.258 108.328 269.338 108.197 269.338Z" fill="white"/>
<path d="M112.214 272.758C112.032 272.758 111.887 272.612 111.887 272.431V265.037C111.887 264.855 112.032 264.71 112.214 264.71C112.396 264.71 112.542 264.855 112.542 265.037V272.431C112.542 272.605 112.396 272.758 112.214 272.758Z" fill="white"/>
<path d="M111.246 267.599C111.202 267.599 111.159 267.592 111.115 267.57C110.948 267.497 110.868 267.301 110.941 267.133L112.112 264.426L113.422 265.94C113.538 266.078 113.524 266.289 113.385 266.406C113.247 266.522 113.043 266.507 112.92 266.376L112.294 265.656L111.537 267.402C111.501 267.519 111.377 267.599 111.246 267.599Z" fill="white"/>
</g>
<g opacity="0.7">
<path d="M100.367 279.51C100.236 279.51 100.112 279.481 100.01 279.416C99.7555 279.27 99.6172 278.986 99.6172 278.623V277.72C99.6172 277.538 99.7627 277.393 99.9446 277.393C100.127 277.393 100.272 277.538 100.272 277.72V278.623C100.272 278.761 100.308 278.826 100.338 278.841C100.359 278.855 100.439 278.848 100.556 278.783C100.847 278.615 101.167 277.96 101.167 277.291V273.507C101.167 273.325 101.313 273.18 101.495 273.18C101.676 273.18 101.822 273.325 101.822 273.507V277.291C101.822 278.15 101.422 279.037 100.883 279.35C100.709 279.459 100.534 279.51 100.367 279.51Z" fill="white"/>
<path d="M96.8955 276.462V275.894C96.8955 273.209 98.7874 269.927 101.116 268.588C102.309 267.904 103.445 267.802 104.31 268.304C105.184 268.806 105.664 269.84 105.664 271.215V271.404L96.8955 276.462ZM103.088 268.646C102.593 268.646 102.033 268.821 101.443 269.156C99.4642 270.298 97.8269 272.954 97.5868 275.305L105.002 271.026C104.965 269.993 104.602 269.236 103.983 268.872C103.714 268.719 103.415 268.646 103.088 268.646Z" fill="white"/>
</g>
<path opacity="0.7" d="M20.2871 192.569L80.7345 227.541L93.3595 244.983L80.065 228.159L20.2871 192.569Z" fill="white"/>
<path opacity="0.7" d="M147.032 213.991L93.3594 244.983V286.991L94.3635 245.827L147.032 213.991Z" fill="white"/>
<path d="M62.621 194.924C67.5066 194.218 71.9685 191.085 74.7998 187.111C76.1159 185.262 77.1174 183.188 77.6888 180.986C78.2088 178.964 78.5041 176.697 77.9841 174.643C77.0981 171.125 73.8368 169.038 70.3892 168.595C68.6494 168.371 66.8518 168.538 65.189 169.109C63.4235 169.719 61.979 170.829 60.8876 172.351C60.3227 173.141 59.732 174.117 59.6999 175.118C59.6742 175.991 60.3034 176.614 61.138 176.755C62.1459 176.928 63.2117 176.498 64.0784 176.01C65.1441 175.413 66.0557 174.63 66.8197 173.674C68.3733 171.722 69.7023 169.34 70.3764 166.933C70.9606 164.846 70.8322 162.573 70.3892 160.474C69.9334 158.33 69.0474 156.141 67.4745 154.568C65.831 152.918 63.4877 152.109 61.2279 151.807C58.9359 151.505 56.522 151.711 54.3264 152.475C53.3826 152.802 52.4068 153.239 51.6749 153.919C51.1228 154.433 50.4936 155.287 50.7183 156.115C50.9687 157.039 52.1628 157.322 52.991 157.213C54.198 157.059 55.3536 156.307 56.2074 155.473C57.1512 154.555 57.9986 153.431 58.6278 152.269C59.09 151.415 59.3725 150.465 59.3532 149.483C59.2698 145.406 54.7694 142.774 51.2448 142.036C50.2882 141.837 49.3252 141.773 48.3494 141.843C48.0219 141.869 48.221 142.382 48.4842 142.363C50.3331 142.222 52.2463 142.78 53.8834 143.602C55.4756 144.398 56.9971 145.573 57.8702 147.153C58.7498 148.745 58.6535 150.574 57.7226 152.122C57.087 153.181 56.3166 154.253 55.3985 155.088C54.6345 155.781 53.4854 156.583 52.394 156.506C52.073 156.481 51.6685 156.333 51.5465 155.974C51.4053 155.556 51.7199 155.062 51.9317 154.805C52.4517 154.157 53.2478 153.772 54.0054 153.431C55.8864 152.597 58.0564 152.327 60.098 152.43C62.1973 152.539 64.3865 153.078 66.0942 154.362C67.6992 155.563 68.643 157.431 69.2144 159.312C69.805 161.257 70.049 163.389 69.7793 165.411C69.4968 167.472 68.5146 169.443 67.4489 171.202C66.2612 173.16 64.7717 175.035 62.5376 175.824C61.9854 176.017 60.8298 176.312 60.6116 175.503C60.3933 174.707 61.0224 173.718 61.4333 173.096C62.3578 171.683 63.6033 170.586 65.1698 169.944C66.6399 169.34 68.2706 169.115 69.8499 169.237C72.8738 169.468 75.9425 171.048 76.9954 174.052C77.6117 175.811 77.4897 177.769 77.1559 179.574C76.79 181.57 76.0517 183.496 75.0309 185.249C72.8481 189.011 69.4391 191.836 65.4715 193.556C64.5213 193.967 63.5327 194.314 62.5504 194.641C62.4605 194.686 62.5055 194.943 62.621 194.924Z" fill="#E0E0E0"/>
<path d="M42.2114 139.186C39.6113 139.006 36.106 141.022 37.3643 142.498C38.6226 143.975 41.9674 141.587 41.9674 141.587C41.9674 141.587 41.6528 144.572 42.7442 144.912C43.8356 145.252 45.2801 142.408 44.2208 140.585C44.2208 140.585 45.8644 141.311 47.4116 140.168C48.9588 139.025 47.3153 137.946 45.1261 138.139C45.1261 138.139 46.6925 133.016 43.5275 133.985C41.961 134.467 41.4025 136.322 42.2114 139.186Z" fill="#24E256"/>
<path opacity="0.65" d="M42.2114 139.186C39.6113 139.006 36.106 141.022 37.3643 142.498C38.6226 143.975 41.9674 141.587 41.9674 141.587C41.9674 141.587 41.6528 144.572 42.7442 144.912C43.8356 145.252 45.2801 142.408 44.2208 140.585C44.2208 140.585 45.8644 141.311 47.4116 140.168C48.9588 139.025 47.3153 137.946 45.1261 138.139C45.1261 138.139 46.6925 133.016 43.5275 133.985C41.961 134.467 41.4025 136.322 42.2114 139.186Z" fill="white"/>
<path d="M44.5998 140.277C44.4586 140.136 44.3045 140.007 44.1504 139.885C43.9257 139.712 43.6882 139.545 43.4635 139.378C43.2452 139.218 43.0141 139.077 42.7765 138.948C42.6417 138.871 42.5005 138.801 42.3528 138.743C42.1281 138.646 41.9355 138.608 41.698 138.64C41.4733 138.666 41.2678 138.929 41.4412 139.141C41.6402 139.398 41.8906 139.449 42.1153 139.564C42.2308 139.622 42.3464 139.686 42.462 139.757C42.6995 139.898 42.9114 140.059 43.1296 140.219C43.3479 140.38 43.5726 140.534 43.7909 140.694C44.1312 140.958 44.4778 141.214 44.8887 141.362C44.9272 141.375 44.9722 141.369 45.0043 141.343C45.2675 141.073 44.786 140.463 44.5998 140.277Z" fill="#455A64"/>
</svg>
