<svg width="20" height="20" viewBox="0 0 20 20" fill="none" xmlns="http://www.w3.org/2000/svg">
<g clip-path="url(#clip0_1_17247)">
<path d="M10.0001 1.66663C12.0845 3.94859 13.269 6.90999 13.3334 9.99996C13.269 13.0899 12.0845 16.0513 10.0001 18.3333M10.0001 1.66663C7.91568 3.94859 6.73112 6.90999 6.66675 9.99996C6.73112 13.0899 7.91568 16.0513 10.0001 18.3333M10.0001 1.66663C5.39771 1.66663 1.66675 5.39759 1.66675 9.99996C1.66675 14.6023 5.39771 18.3333 10.0001 18.3333M10.0001 1.66663C14.6025 1.66663 18.3334 5.39759 18.3334 9.99996C18.3334 14.6023 14.6025 18.3333 10.0001 18.3333M2.08343 7.49996H17.9168M2.08341 12.5H17.9167" stroke="#17B26A" stroke-width="1.5" stroke-linecap="round" stroke-linejoin="round"/>
</g>
<defs>
<clipPath id="clip0_1_17247">
<rect width="20" height="20" fill="white"/>
</clipPath>
</defs>
</svg>
