<svg width="14" height="14" viewBox="0 0 14 14" fill="none" xmlns="http://www.w3.org/2000/svg">
<g clip-path="url(#clip0_1656_2921)">
<path d="M7.71429 11.9616C7.85424 12.3214 7.92421 12.5014 8.02315 12.5519C8.10886 12.5956 8.21065 12.5943 8.29519 12.5483C8.39277 12.4952 8.45799 12.3135 8.58845 11.9501L11.9158 2.68111C12.0225 2.38379 12.0759 2.23513 12.0422 2.13794C12.013 2.05344 11.9466 1.98704 11.8621 1.95777C11.7649 1.92412 11.6162 1.97748 11.3189 2.08421L2.04989 5.41152C1.68648 5.54198 1.50477 5.6072 1.45167 5.70478C1.40567 5.78932 1.40434 5.89111 1.4481 5.97682C1.49862 6.07576 1.67855 6.14573 2.03842 6.28568L5.93367 7.8005C6.00417 7.82792 6.03942 7.84162 6.0691 7.8628C6.0954 7.88156 6.11841 7.90457 6.13717 7.93087C6.15835 7.96055 6.17205 7.9958 6.19947 8.0663L7.71429 11.9616Z" stroke="#98A2B3" stroke-width="1.5" stroke-linecap="round" stroke-linejoin="round"/>
</g>
<defs>
<clipPath id="clip0_1656_2921">
<rect width="14" height="14" fill="white" transform="translate(14) rotate(90)"/>
</clipPath>
</defs>
</svg>
