<svg width="40" height="28" viewBox="0 0 40 28" fill="none" xmlns="http://www.w3.org/2000/svg">
<path d="M14 25H10M18 12C18 10.4087 17.3679 8.88258 16.2427 7.75736C15.1174 6.63214 13.5913 6 12 6C10.4087 6 8.8826 6.63214 7.75738 7.75736C6.63216 8.88258 6.00002 10.4087 6.00002 12C6.00002 15.0902 5.22049 17.206 4.34968 18.6054C3.61515 19.7859 3.24788 20.3761 3.26134 20.5408C3.27626 20.7231 3.31488 20.7926 3.46179 20.9016C3.59448 21 4.19261 21 5.38887 21H18.6112C19.8074 21 20.4056 21 20.5382 20.9016C20.6852 20.7926 20.7238 20.7231 20.7387 20.5408C20.7522 20.3761 20.3849 19.7859 19.6504 18.6054C18.7795 17.206 18 15.0902 18 12Z" stroke="black" stroke-width="2" stroke-linecap="round" stroke-linejoin="round"/>
</svg>
