<svg width="25" height="24" viewBox="0 0 25 24" fill="none" xmlns="http://www.w3.org/2000/svg">
<path d="M15.2957 7.36585C15.2957 5.47906 13.7679 3.95122 11.8811 3.95122C9.99428 3.95122 8.46644 5.47906 8.46644 7.36585C8.46644 9.25265 9.99428 10.7805 11.8811 10.7805C13.7679 10.7805 15.2957 9.25265 15.2957 7.36585ZM17.2469 7.36585C17.2469 10.3303 14.8455 12.7317 11.8811 12.7317C8.91665 12.7317 6.51522 10.3303 6.51522 7.36585C6.51522 4.40143 8.91665 2 11.8811 2C14.8455 2 17.2469 4.40143 17.2469 7.36585ZM5.05181 19.2125C5.05181 20.1329 4.97363 20.0488 5.49657 20.0488H18.7534C19.2763 20.0488 19.1981 20.1329 19.1981 19.2125C19.1981 16.9802 15.9747 15.6585 12.125 15.6585C8.27524 15.6585 5.05181 16.9802 5.05181 19.2125ZM3.10059 19.2125C3.10059 15.427 7.29465 13.7073 12.125 13.7073C16.9553 13.7073 21.1494 15.427 21.1494 19.2125C21.1494 21.1798 20.3873 22 18.7534 22H5.49657C3.86264 22 3.10059 21.1798 3.10059 19.2125Z" fill="#5097F6"/>
</svg>
