<svg width="25" height="24" viewBox="0 0 25 24" fill="none" xmlns="http://www.w3.org/2000/svg">
<path d="M15.6707 7.36585C15.6707 5.47906 14.1429 3.95122 12.2561 3.95122C10.3693 3.95122 8.84144 5.47906 8.84144 7.36585C8.84144 9.25265 10.3693 10.7805 12.2561 10.7805C14.1429 10.7805 15.6707 9.25265 15.6707 7.36585ZM17.6219 7.36585C17.6219 10.3303 15.2205 12.7317 12.2561 12.7317C9.29165 12.7317 6.89022 10.3303 6.89022 7.36585C6.89022 4.40143 9.29165 2 12.2561 2C15.2205 2 17.6219 4.40143 17.6219 7.36585ZM5.42681 19.2125C5.42681 20.1329 5.34863 20.0488 5.87157 20.0488H19.1284C19.6513 20.0488 19.5731 20.1329 19.5731 19.2125C19.5731 16.9802 16.3497 15.6585 12.5 15.6585C8.65024 15.6585 5.42681 16.9802 5.42681 19.2125ZM3.47559 19.2125C3.47559 15.427 7.66965 13.7073 12.5 13.7073C17.3303 13.7073 21.5244 15.427 21.5244 19.2125C21.5244 21.1798 20.7623 22 19.1284 22H5.87157C4.23764 22 3.47559 21.1798 3.47559 19.2125Z" fill="#98A2B3"/>
</svg>
